<?xml version="1.0" encoding="UTF-8"?>
<svg width="24px" height="24px" viewBox="0 0 24 24" version="1.1" xmlns="http://www.w3.org/2000/svg">
    <path d="M12,0c-6.626,0-12,5.372-12,12c0,6.627,5.374,12,12,12c6.627,0,12-5.373,12-12c0-6.628-5.373-12-12-12zM19.268,7.005 l-2.147,10.126c-0.162,0.717-0.584,0.894-1.182,0.556l-3.265-2.408l-1.577,1.519c-0.174,0.174-0.321,0.321-0.657,0.321 l0.235-3.329l6.097-5.498c0.265-0.235-0.058-0.366-0.41-0.132l-7.533,4.746l-3.241-1.013c-0.705-0.22-0.717-0.705,0.147-1.043 l12.686-4.892c0.586-0.22,1.096,0.147,0.909,1.043z" fill="currentColor"/>
</svg>
